:SAMPLES-PER-SECOND 30
:FULLY-SPECIFIED
:DEGREES
56
root  -7.9097 38.3658 16.4984 -13.2638 -65.9372 8.73945
RightUpLeg  -15.344 -6.10708 3.88589
RightLeg  8.43459 -20.515 1.58527
RightFoot  -0.175543 0.915734 -9.50872
RightToes  5.23868e-010 0 -3.6325e-017
Spine  5.4292 -3.9191 -1.02054
Spine1  9.77568 -5.46411 4.18238
HEad  -23.3938 -18.6031 4.24951
LeftShoulder1  -0.224021 4.11516 -30.4051
LeftArm  -4.77561 -8.83486 -54.1881
LeftForeArm  35.1975 -4.59608 -7.82601
LeftHand  -0.00449581 3.4728 -0.893679
RightShoulder  -0.745747 -5.72211 26.975
RightArm  12.1803 -1.72688 47.4828
RightForeArm  20.2793 9.16194 6.30083
RightHand  -0.124331 -0.596362 -2.9431
LeftUpLeg  16.1158 8.95262 -8.26351
LeftLeg  12.3596 -1.308 -1.58502
LeftFoot  -18.7144 0.416229 4.75109
LeftToes  -4.9204e-010 1.02043e-011 -1.81609e-011
57
root  -8.97198 38.3312 17.3012 -8.87167 -67.8994 4.31131
RightUpLeg  -16.6331 -9.14538 7.1033
RightLeg  14.1104 -15.0264 -1.096
RightFoot  -1.61029 0.761565 -9.05425
RightToes  5.23868e-010 0 -3.6325e-017
Spine  4.95847 -3.78952 3.42023
Spine1  9.46611 -4.92286 3.3946
HEad  -24.2682 -18.7411 3.38412
LeftShoulder1  -0.322583 4.35191 -31.9422
LeftArm  -5.84958 -6.38329 -52.6045
LeftForeArm  35.628 -2.97393 -7.31033
LeftHand  -0.0101752 3.84504 -0.915504
RightShoulder  -0.748588 -5.7247 27.066
RightArm  9.84003 -1.54861 45.921
RightForeArm  18.7789 7.72873 5.62029
RightHand  -0.147676 -0.207154 -3.29532
LeftUpLeg  15.2525 14.8026 -4.25373
LeftLeg  18.5275 -7.26796 -2.55558
LeftFoot  -18.3835 0.237039 2.12406
LeftToes  -4.9204e-010 1.02043e-011 -1.81609e-011
58
root  -9.98338 38.3135 17.9207 -6.37265 -70.0503 2.26544
RightUpLeg  -17.1604 -9.57707 8.7913
RightLeg  17.291 -12.2186 -2.35149
RightFoot  -2.80829 0.742648 -10.1864
RightToes  5.23868e-010 0 -3.6325e-017
Spine  4.68951 -3.39421 6.07417
Spine1  9.05511 -4.10731 2.92972
HEad  -24.4444 -18.7025 2.69777
LeftShoulder1  -0.351951 4.4302 -31.8629
LeftArm  -6.93651 -3.11285 -51.6511
LeftForeArm  35.5658 -1.89353 -6.74347
LeftHand  -0.00615055 3.65161 -1.12835
RightShoulder  -0.739548 -5.71157 26.8459
RightArm  8.32155 -1.34218 45.6029
RightForeArm  16.6511 5.91278 5.08486
RightHand  -0.177316 0.932451 -3.34186
LeftUpLeg  11.8501 17.3448 -1.95804
LeftLeg  28.0329 -10.2171 -5.54118
LeftFoot  -15.1262 0.0243519 -2.66759
LeftToes  -4.9204e-010 1.02043e-011 -1.81609e-011
59
root  -10.9387 38.3315 18.3727 -4.7632 -70.4769 0.609812
RightUpLeg  -16.5911 -9.11602 9.04167
RightLeg  19.7177 -12.5287 -2.85648
RightFoot  -4.70345 0.60017 -10.8273
RightToes  5.23868e-010 0 -3.6325e-017
Spine  5.07178 -3.56599 6.67447
Spine1  8.62613 -4.21471 4.02342
HEad  -24.0431 -19.1037 2.74784
LeftShoulder1  -0.319954 4.35674 -31.3604
LeftArm  -7.59402 0.0118274 -50.5522
LeftForeArm  35.223 -1.3805 -6.45335
LeftHand  -0.00848788 3.96973 -1.32952
RightShoulder  -0.700531 -5.62721 26.3283
RightArm  7.08831 -1.42781 46.2558
RightForeArm  17.1682 4.9545 4.59673
RightHand  -0.0991746 0.258569 -2.09983
LeftUpLeg  7.08589 16.748 0.100126
LeftLeg  39.4213 -12.3965 -10.3374
LeftFoot  -7.71475 0.401924 -10.1074
LeftToes  -4.9204e-010 1.02043e-011 -1.81609e-011
60
root  -11.8273 38.2693 18.78 -1.47193 -71.1097 -2.72918
RightUpLeg  -15.9074 -8.87682 9.73053
RightLeg  21.5591 -12.4194 -2.80359
RightFoot  -6.68009 0.37994 -10.3786
RightToes  5.23868e-010 0 -3.6325e-017
Spine  5.49761 -3.63497 8.86944
Spine1  7.96418 -3.73532 3.66838
HEad  -22.8545 -20.6342 2.87132
LeftShoulder1  -0.234842 4.13458 -31.118
LeftArm  -7.59148 2.3106 -48.6009
LeftForeArm  36.1863 -1.17207 -6.54401
LeftHand  -0.0110335 4.6998 -2.64728
RightShoulder  -0.75857 -5.78004 26.6684
RightArm  7.41018 -1.85432 46.1777
RightForeArm  16.704 5.92176 4.72005
RightHand  -0.112455 -0.553689 -2.62109
LeftUpLeg  1.07307 14.2694 1.95166
LeftLeg  50.4259 -11.9545 -14.6715
LeftFoot  1.39314 1.88121 -17.0255
LeftToes  -4.9204e-010 1.02043e-011 -1.81609e-011
61
root  -12.7342 38.2416 19.1624 0.406608 -72.7862 -5.18759
RightUpLeg  -14.2359 -7.87515 10.1966
RightLeg  22.8656 -11.9416 -2.81075
RightFoot  -8.55407 0.181574 -9.8309
RightToes  5.23868e-010 0 -3.6325e-017
Spine  6.49825 -3.3983 10.6247
Spine1  7.51714 -2.83996 3.01022
HEad  -21.9649 -21.9337 2.82904
LeftShoulder1  -0.308634 4.3241 -31.4759
LeftArm  -7.36251 4.32845 -46.0677
LeftForeArm  37.4207 -2.37515 -6.82787
LeftHand  0.000450554 4.32337 -2.72388
RightShoulder  -0.872915 -6.07843 27.3236
RightArm  8.71515 -1.8628 46.0899
RightForeArm  15.2607 7.96102 5.25139
RightHand  -0.1863 0.354612 -3.89707
LeftUpLeg  -3.66651 12.13 3.51384
LeftLeg  58.4388 -10.8515 -17.8291
LeftFoot  7.76247 3.0817 -18.5333
LeftToes  -4.9204e-010 1.02043e-011 -1.81609e-011
62
root  -13.6836 38.4072 19.5444 -0.80231 -74.3307 -4.40886
RightUpLeg  -11.7708 -6.87432 9.60654
RightLeg  22.7269 -11.5636 -2.65629
RightFoot  -9.73112 0.0710089 -9.68685
RightToes  5.23868e-010 0 -3.6325e-017
Spine  7.18789 -3.44287 10.5773
Spine1  7.09813 -2.56356 2.53501
HEad  -20.9432 -22.838 2.51198
LeftShoulder1  -0.485374 4.79108 -31.5671
LeftArm  -7.19122 6.66201 -43.7999
LeftForeArm  35.6161 -4.41842 -7.04586
LeftHand  -0.0231624 4.99177 -1.83829
RightShoulder  -0.859796 -6.03897 27.3197
RightArm  10.0475 -1.4728 47.0056
RightForeArm  14.3331 9.94098 5.56665
RightHand  -0.190185 2.0329 -3.02271
LeftUpLeg  -7.86363 9.39619 4.11871
LeftLeg  63.2832 -8.28602 -16.7761
LeftFoot  5.08032 2.3555 -16.4445
LeftToes  -4.9204e-010 1.02043e-011 -1.81609e-011
63
root  -14.6523 38.6076 19.9298 -4.05562 -76.9731 -1.25229
RightUpLeg  -9.34399 -6.14968 8.67704
RightLeg  22.1215 -9.80059 -2.27159
RightFoot  -10.717 -0.0205206 -9.40727
RightToes  5.23868e-010 0 -3.6325e-017
Spine  6.60935 -2.89648 10.4513
Spine1  7.80485 -1.71805 1.41127
HEad  -19.5486 -24.3328 1.36229
LeftShoulder1  -0.466175 4.74499 -31.4189
LeftArm  -7.64191 8.7772 -42.1473
LeftForeArm  32.5601 -6.01532 -6.8059
LeftHand  -0.00615899 3.94248 -1.3217
RightShoulder  -0.881093 -6.08132 27.5989
RightArm  11.4034 -0.890783 47.7224
RightForeArm  11.4999 12.6282 5.41829
RightHand  -0.07438 0.693413 -1.44207
LeftUpLeg  -11.5893 6.86001 3.9769
LeftLeg  64.6063 -5.27956 -11.4088
LeftFoot  4.42748 1.67951 -12.2705
LeftToes  -4.9204e-010 1.02043e-011 -1.81609e-011
64
root  -15.6401 38.837 20.3049 -10.7396 -80.4484 5.18955
RightUpLeg  -6.4609 -5.84077 7.44959
RightLeg  20.9318 -6.7605 -1.44868
RightFoot  -11.5055 -0.0909336 -9.12225
RightToes  5.23868e-010 0 -3.6325e-017
Spine  6.9234 -2.25137 10.4497
Spine1  7.54316 -0.623295 -0.36499
HEad  -18.5354 -23.2163 0.642985
LeftShoulder1  -0.531776 4.91622 -31.4997
LeftArm  -7.92553 10.9317 -40.6231
LeftForeArm  29.3647 -7.67742 -6.62827
LeftHand  -0.0134641 3.58687 -0.340659
RightShoulder  -0.865945 -6.03705 27.5921
RightArm  12.3689 -0.677823 48.32
RightForeArm  3.12768 16.1214 5.04888
RightHand  -0.229422 3.23871 -3.36053
LeftUpLeg  -14.1411 5.34629 3.90267
LeftLeg  63.2691 -2.1909 -4.20307
LeftFoot  4.11438 0.883607 -6.81107
LeftToes  -4.9204e-010 1.02043e-011 -1.81609e-011
65
root  -16.6134 39.0767 20.6229 -25.6052 -83.8919 19.7316
RightUpLeg  -3.46063 -5.74388 6.05884
RightLeg  19.4525 -3.2339 -0.661046
RightFoot  -11.9037 -0.125706 -9.25675
RightToes  5.23868e-010 0 -3.6325e-017
Spine  7.17843 -1.48221 9.42849
Spine1  7.48818 0.19511 -1.0202
HEad  -17.0244 -21.4788 -0.504426
LeftShoulder1  -0.578371 5.03848 -31.5182
LeftArm  -8.36871 12.9274 -39.965
LeftForeArm  28.0393 -9.11616 -6.22683
LeftHand  -0.00474379 2.75623 -0.411322
RightShoulder  -0.854975 -6.01457 27.4578
RightArm  13.2211 0.44146 48.3375
RightForeArm  -3.37802 19.6289 4.95395
RightHand  -0.306413 4.98307 -3.72792
LeftUpLeg  -15.7799 4.19673 3.68778
LeftLeg  59.4923 1.08502 2.51901
LeftFoot  3.96183 -0.155123 1.0285
LeftToes  -4.9204e-010 1.02043e-011 -1.81609e-011
66
root  -17.5904 39.2888 20.9091 -59.3691 -86.173 53.4256
RightUpLeg  -0.749201 -5.56439 4.89379
RightLeg  17.8169 0.120924 -0.229993
RightFoot  -12.2585 -0.155812 -9.13993
RightToes  5.23868e-010 0 -3.6325e-017
Spine  7.15147 -0.99631 8.93172
Spine1  7.14746 0.822378 -2.32714
HEad  -15.2747 -20.2116 -1.29006
LeftShoulder1  -0.486043 4.81931 -30.8125
LeftArm  -8.658 14.932 -39.9477
LeftForeArm  27.5641 -9.93274 -5.95978
LeftHand  -0.0185186 4.33092 -0.473753
RightShoulder  -0.860294 -6.0375 27.3621
RightArm  12.5363 1.6636 48.0888
RightForeArm  -7.52527 23.6313 5.40666
RightHand  -0.382279 6.25813 -4.14026
LeftUpLeg  -16.6591 3.07428 3.95344
LeftLeg  53.3036 3.10004 4.96687
LeftFoot  0.727039 -0.170229 1.53347
LeftToes  -4.9204e-010 1.02043e-011 -1.81609e-011
67
root  -18.5425 39.3919 21.188 -111.949 -86.4663 106.346
RightUpLeg  0.971281 -5.36538 4.10657
RightLeg  16.9565 3.3779 -0.00619909
RightFoot  -12.9421 -0.212957 -8.97029
RightToes  5.23868e-010 0 -3.6325e-017
Spine  6.64754 -0.678971 8.81804
Spine1  7.05641 1.22418 -3.48394
HEad  -14.5189 -17.4502 -1.29126
LeftShoulder1  -0.496679 4.84885 -30.7789
LeftArm  -8.41638 15.8582 -39.5051
LeftForeArm  27.3977 -10.0901 -5.97704
LeftHand  -0.022992 3.06455 -0.519838
RightShoulder  -0.832271 -5.94327 27.5096
RightArm  9.64776 3.34386 47.5764
RightForeArm  -10.2603 27.6216 6.48028
RightHand  -0.466866 7.2335 -4.65131
LeftUpLeg  -17.1877 1.87318 4.36877
LeftLeg  44.7494 3.20483 3.84769
LeftFoot  0.286477 -0.075011 0.728387
LeftToes  -4.9204e-010 1.02043e-011 -1.81609e-011
68
root  -19.5143 39.4868 21.455 -140.279 -84.6065 134.727
RightUpLeg  3.11784 -5.50122 3.02241
RightLeg  15.8388 6.26019 0.157595
RightFoot  -13.4722 -0.256171 -8.87113
RightToes  5.23868e-010 0 -3.6325e-017
Spine  6.13661 -0.653515 8.10875
Spine1  7.24088 1.11056 -3.83965
HEad  -13.9664 -14.6259 -1.70157
LeftShoulder1  -0.488034 4.82464 -30.796
LeftArm  -8.57109 16.227 -39.5133
LeftForeArm  27.5254 -9.36001 -6.04125
LeftHand  -0.0843727 -0.0645315 1.92179
RightShoulder  -0.766388 -5.79071 26.8779
RightArm  6.47489 4.72393 47.4352
RightForeArm  -15.1574 32.0273 7.85334
RightHand  -0.597361 7.15844 -5.84073
LeftUpLeg  -16.4083 -0.272412 4.48355
LeftLeg  33.7737 1.70489 1.57845
LeftFoot  0.501231 0.0809821 -0.818022
LeftToes  -4.9204e-010 1.02043e-011 -1.81609e-011
69
root  -20.5216 39.5545 21.6796 -151.592 -82.6665 146.178
RightUpLeg  5.28137 -5.55626 2.10285
RightLeg  14.4924 8.78876 0.170735
RightFoot  -14.0815 -0.300721 -8.58726
RightToes  5.23868e-010 0 -3.6325e-017
Spine  5.44654 -0.526755 7.25643
Spine1  7.46728 0.968935 -3.69865
HEad  -12.5639 -12.5246 -2.18564
LeftShoulder1  -0.503339 4.84419 -31.402
LeftArm  -8.21096 15.6414 -39.2576
LeftForeArm  27.6964 -8.13464 -6.32114
LeftHand  -0.026566 2.94487 0.430101
RightShoulder  -0.725705 -5.71998 26.0916
RightArm  3.182 5.44762 46.6292
RightForeArm  -21.6065 37.5086 9.78088
RightHand  -0.798762 8.10617 -7.23481
LeftUpLeg  -15.2075 -2.38431 4.57283
LeftLeg  22.2129 -0.588624 0.0542439
LeftFoot  0.397538 0.300496 -2.93114
LeftToes  -4.9204e-010 1.02043e-011 -1.81609e-011
70
root  -21.5625 39.5707 21.8764 -157.298 -80.3955 151.673
RightUpLeg  7.55852 -5.53652 0.75332
RightLeg  13.6989 11.3831 0.266717
RightFoot  -15.0213 -0.366136 -8.22504
RightToes  5.23868e-010 0 -3.6325e-017
Spine  4.74818 -0.442529 6.04579
Spine1  8.04329 0.934315 -3.87056
HEad  -10.7708 -10.11 -2.56084
LeftShoulder1  -0.456455 4.73452 -30.9535
LeftArm  -8.88656 15.9604 -40.127
LeftForeArm  28.923 -8.10011 -6.03356
LeftHand  -0.0115913 4.31606 -1.14076
RightShoulder  -0.698703 -5.63574 26.1067
RightArm  -0.942486 5.64648 45.0953
RightForeArm  -28.0094 44.0838 12.4314
RightHand  -0.737156 8.23088 -6.63794
LeftUpLeg  -13.3593 -1.33827 3.75322
LeftLeg  12.0199 -4.68876 -0.595315
LeftFoot  0.349301 0.539883 -5.32597
LeftToes  -4.9204e-010 1.02043e-011 -1.81609e-011
